<svg width="76" height="76" viewBox="0 0 76 76" fill="none" xmlns="http://www.w3.org/2000/svg">
<g filter="url(#filter0_d_620_1118)">
<rect x="2" width="72" height="72" rx="3" fill="#F0F0F0"/>
<path fill-rule="evenodd" clip-rule="evenodd" d="M33.9125 35.9657V25.154C33.9125 23.7631 35.081 22.625 36.5091 22.625H39.1058C40.534 22.625 41.7025 23.7631 41.7025 25.154C41.7025 25.1831 41.702 25.212 41.701 25.2407C40.0023 24.9494 38.3351 26.0025 37.9337 27.6576L37.9275 27.6831H36.5091V30.7008L36.5094 30.7015V33.5295L34.4074 42.1956C34.2368 42.8987 34.3204 43.6042 34.5998 44.2199C33.9197 44.7856 33.0891 45.1801 32.1597 45.3232C31.6432 45.4025 31.138 45.4073 30.6537 45.3471L30.6536 45.3471C30.4614 45.3232 30.2724 45.289 30.0874 45.2451C27.5385 44.6414 25.7247 42.2027 26.2004 39.4432C26.512 37.6728 27.8492 36.1681 29.589 35.5611C31.186 35.0173 32.692 35.2829 33.9125 35.9657V35.9657ZM39.0661 27.6831C39.41 26.7345 40.4042 26.1424 41.4296 26.2792C41.4983 26.2884 41.5672 26.3009 41.636 26.3167L56.5628 29.7512C57.7356 30.021 58.4685 31.1764 58.1914 32.3187L54.6651 46.8567C54.388 47.999 53.2018 48.7128 52.0289 48.443L37.1022 45.0085C36.2345 44.8088 35.6075 44.1244 35.4523 43.3192C35.3977 43.0361 35.4015 42.7381 35.4736 42.441L36.5091 38.1715L37.6049 33.6538L37.608 33.6412L38.9999 27.9029C39.0181 27.8277 39.0403 27.7544 39.0661 27.6831ZM40.0522 40.1817L38.731 41.217C38.3707 41.4959 38.495 42.0507 38.9428 42.1538L39.2729 42.2297L51.7265 45.0952C52.1637 45.1958 52.5379 44.7666 52.3545 44.3626L49.791 38.6416C49.6457 38.3122 49.2193 38.2141 48.9405 38.435L44.6303 41.8178L43.0286 38.6754C42.8676 38.3643 42.46 38.2815 42.1919 38.5048L40.0522 40.1817ZM40.3257 41.3756C40.3289 41.3605 40.3318 41.3453 40.3343 41.33L40.2875 41.3668L40.3257 41.3756ZM32.8172 34.3882V33.3004L32.7924 33.234L32.8172 33.2252V30.9542L32.043 31.2286L31.2936 29.2233L32.8172 28.6832V25.1541C32.8172 24.783 32.8754 24.4247 32.9835 24.0875C32.9499 24.0959 32.9164 24.106 32.8832 24.1178C32.317 24.3185 32.0223 24.9339 32.2284 25.4854L32.6031 26.4881L30.5442 27.218L30.1695 26.2153C29.9634 25.6638 29.3315 25.3768 28.7653 25.5776L22.5884 27.7672C22.0222 27.9679 21.7276 28.5834 21.9337 29.1348L22.3084 30.1375L20.2494 30.8674L19.8747 29.8647C19.6686 29.3132 19.0368 29.0263 18.4705 29.227C17.9043 29.4277 17.6097 30.0431 17.8158 30.5946L23.8109 46.6372C24.017 47.1887 24.6489 47.4757 25.2151 47.275C25.7813 47.0743 26.076 46.4588 25.8699 45.9074L25.4952 44.9047L26.6943 44.4796C26.1877 43.9441 25.7776 43.3204 25.4911 42.6352L24.7458 42.8994L23.9964 40.894L25.0321 40.5269C25.0184 40.1156 25.0465 39.6942 25.1202 39.2666L25.1208 39.2629C25.5017 37.099 27.122 35.2885 29.2198 34.5566L29.2277 34.5539L29.2277 34.5539C30.4919 34.1235 31.7142 34.1145 32.8172 34.3882ZM25.306 38.1588L23.247 38.8887L22.4976 36.8834L24.5566 36.1535L25.306 38.1588ZM23.8072 34.1482L21.7482 34.878L20.9988 32.8727L23.0578 32.1428L23.8072 34.1482Z" fill="#373737"/>
</g>
<defs>
<filter id="filter0_d_620_1118" x="0" y="0" width="76" height="76" filterUnits="userSpaceOnUse" color-interpolation-filters="sRGB">
<feFlood flood-opacity="0" result="BackgroundImageFix"/>
<feColorMatrix in="SourceAlpha" type="matrix" values="0 0 0 0 0 0 0 0 0 0 0 0 0 0 0 0 0 0 127 0" result="hardAlpha"/>
<feOffset dy="2"/>
<feGaussianBlur stdDeviation="1"/>
<feComposite in2="hardAlpha" operator="out"/>
<feColorMatrix type="matrix" values="0 0 0 0 0 0 0 0 0 0 0 0 0 0 0 0 0 0 0.25 0"/>
<feBlend mode="normal" in2="BackgroundImageFix" result="effect1_dropShadow_620_1118"/>
<feBlend mode="normal" in="SourceGraphic" in2="effect1_dropShadow_620_1118" result="shape"/>
</filter>
</defs>
</svg>
