<svg width="24" height="24" viewBox="0 0 24 24" fill="none" xmlns="http://www.w3.org/2000/svg">
<path d="M22.0002 13.6667H13.6668V22C13.6668 22.9167 12.9168 23.6667 12.0002 23.6667C11.0835 23.6667 10.3335 22.9167 10.3335 22V13.6667H2.00016C1.0835 13.6667 0.333496 12.9167 0.333496 12C0.333496 11.0833 1.0835 10.3333 2.00016 10.3333H10.3335V2C10.3335 1.08333 11.0835 0.333332 12.0002 0.333332C12.9168 0.333332 13.6668 1.08333 13.6668 2V10.3333H22.0002C22.9168 10.3333 23.6668 11.0833 23.6668 12C23.6668 12.9167 22.9168 13.6667 22.0002 13.6667Z" fill="#B3B3B3"/>
</svg>
