<svg width="76" height="76" viewBox="0 0 76 76" fill="none" xmlns="http://www.w3.org/2000/svg">
<g filter="url(#filter0_d_808_1008)">
<rect x="2" width="72" height="72" rx="3" fill="#F0F0F0"/>
</g>
<path d="M45.5 25.2222V26.4444H43V25.2222C43 24.55 42.4375 24 41.75 24H34.25C33.5625 24 33 24.55 33 25.2222V26.4444H30.5V25.2222C30.5 24.55 29.9375 24 29.25 24C28.5625 24 28 24.55 28 25.2222V44.7778C28 45.45 28.5625 46 29.25 46C29.9375 46 30.5 45.45 30.5 44.7778V43.5556H33V44.7778C33 45.45 33.5625 46 34.25 46H41.75C42.4375 46 43 45.45 43 44.7778V43.5556H45.5V44.7778C45.5 45.45 46.0625 46 46.75 46C47.4375 46 48 45.45 48 44.7778V25.2222C48 24.55 47.4375 24 46.75 24C46.0625 24 45.5 24.55 45.5 25.2222ZM33 41.1111H30.5V38.6667H33V41.1111ZM33 36.2222H30.5V33.7778H33V36.2222ZM33 31.3333H30.5V28.8889H33V31.3333ZM45.5 41.1111H43V38.6667H45.5V41.1111ZM45.5 36.2222H43V33.7778H45.5V36.2222ZM45.5 31.3333H43V28.8889H45.5V31.3333Z" fill="#323232"/>
<defs>
<filter id="filter0_d_808_1008" x="0" y="0" width="76" height="76" filterUnits="userSpaceOnUse" color-interpolation-filters="sRGB">
<feFlood flood-opacity="0" result="BackgroundImageFix"/>
<feColorMatrix in="SourceAlpha" type="matrix" values="0 0 0 0 0 0 0 0 0 0 0 0 0 0 0 0 0 0 127 0" result="hardAlpha"/>
<feOffset dy="2"/>
<feGaussianBlur stdDeviation="1"/>
<feComposite in2="hardAlpha" operator="out"/>
<feColorMatrix type="matrix" values="0 0 0 0 0 0 0 0 0 0 0 0 0 0 0 0 0 0 0.25 0"/>
<feBlend mode="normal" in2="BackgroundImageFix" result="effect1_dropShadow_808_1008"/>
<feBlend mode="normal" in="SourceGraphic" in2="effect1_dropShadow_808_1008" result="shape"/>
</filter>
</defs>
</svg>
